<?xml version="1.0" encoding="UTF-8"?><svg id="EK_Vertical_LOGO" xmlns="http://www.w3.org/2000/svg" viewBox="0 0 2012.46 569.1"><defs><style>.cls-1{fill:#fe4c61;}</style></defs><path class="cls-1" d="M734.05,261.44h53.76c.42,0,.74-.11.95-.32s.31-.59.31-1.15v-16.17c0-.42-.09-.74-.26-.95-.18-.21-.51-.32-1-.32h-3.25c-.49,0-.84.12-1.05.37-.21.25-.35.54-.42.89-.14,1.05-.26,2.19-.37,3.41-.1,1.23-.19,2.57-.26,4.04-.07,1.47-.18,3.08-.32,4.83h-31.5v-29.4c1.61.07,3.71.14,6.3.21,2.59.07,5.29.14,8.08.21,2.8.07,5.44.16,7.93.26,2.48.1,4.32.16,5.51.16.63,0,1.03-.1,1.21-.32.17-.21.26-.56.26-1.05v-4.09c0-.84-.39-1.26-1.16-1.26-1.4,0-3.33.05-5.77.16-2.45.11-5.09.19-7.93.26-2.83.07-5.56.14-8.19.21-2.62.07-4.71.14-6.25.21v-26.04h29.5c.14,1.68.25,3.33.32,4.93.07,1.61.19,3.06.37,4.36.17,1.3.3,2.22.37,2.78.07.42.21.72.42.89.21.17.53.26.95.26h3.15c.42,0,.73-.07.94-.21.21-.14.28-.49.21-1.05v-16.17c0-.49-.09-.8-.26-.95-.18-.14-.47-.21-.89-.21h-51.45c-.28,0-.54.07-.79.21-.25.14-.37.42-.37.84v2.42c0,.49.09.79.26.89.17.1.44.19.79.26,1.4.21,2.87.39,4.41.53,1.54.14,3.04.28,4.52.42v60.17c-1.89.07-3.78.19-5.67.37-1.89.18-3.01.3-3.36.37-.63.07-.95.42-.95,1.05v2.42c0,.49.09.82.26,1,.17.18.4.26.68.26Z"/><path class="cls-1" d="M831.17,261.12c.14-.21.21-.52.21-.94v-2.42c0-.35-.09-.59-.26-.74-.18-.14-.44-.28-.79-.42-.91-.14-2.21-.26-3.88-.37-1.68-.11-3.33-.19-4.94-.26v-26.78h13.23c4.48,0,7.91.49,10.29,1.47,2.38.98,3.99,2.26,4.83,3.83.84,1.58,1.26,3.31,1.26,5.2v12.18c0,2.24.31,4.08.94,5.51.63,1.44,1.68,2.52,3.15,3.26,1.47.73,3.43,1.1,5.88,1.1,1.12,0,2.1-.04,2.94-.11.84-.07,1.54-.14,2.1-.21.35-.14.61-.3.79-.47.17-.17.26-.47.26-.89v-2.42c0-.35-.07-.61-.21-.79-.14-.17-.42-.26-.84-.26-2.24-.07-3.92-.28-5.04-.63-1.12-.35-1.8-.98-2.05-1.89-.25-.91-.37-2.13-.37-3.68v-11.02c0-2.24-.37-4.22-1.1-5.93-.73-1.71-1.93-3.17-3.57-4.36-1.65-1.19-3.76-2.06-6.35-2.62v-.42c1.96-.42,3.95-1.19,5.98-2.31,2.03-1.12,3.73-2.89,5.09-5.3s2.05-5.58,2.05-9.5v-.84c0-2.45-.37-4.74-1.1-6.88-.74-2.13-1.89-4.02-3.47-5.67-1.57-1.64-3.64-2.94-6.19-3.88-2.56-.95-5.69-1.42-9.4-1.42h-35.49c-.35,0-.63.07-.84.21-.21.14-.32.42-.32.84v2.1c0,.56.09.93.26,1.1.17.18.47.3.89.37.98.21,2.29.39,3.94.53,1.64.14,3.27.28,4.88.42v60.17c-1.96.07-3.71.18-5.25.32-1.54.14-2.77.28-3.68.42-.35.07-.61.17-.79.31-.18.14-.26.42-.26.84v2.42c0,.77.38,1.16,1.16,1.16h25.09c.49,0,.8-.11.95-.32ZM821.51,195.6h16.7c4.9,0,8.59,1.03,11.08,3.1,2.48,2.07,3.73,5.41,3.73,10.03v.53c0,3.85-.82,6.86-2.47,9.03-1.65,2.17-3.85,3.64-6.61,4.41-2.77.77-5.93,1.16-9.5,1.16h-12.92v-28.25Z"/><path class="cls-1" d="M948.87,190.24h-24.67c-.77,0-1.16.39-1.16,1.16v2.21c0,.42.09.72.26.89.17.18.47.33.89.47.98.14,2.26.28,3.83.42,1.57.14,3.13.28,4.67.42v25.51h-37.38v-25.51c2.03-.14,3.69-.28,4.99-.42,1.29-.14,2.43-.28,3.41-.42.84-.14,1.26-.53,1.26-1.16v-2.52c0-.42-.11-.7-.32-.84-.21-.14-.49-.21-.84-.21h-24.88c-.42,0-.72.07-.89.21-.18.14-.26.42-.26.84v2.21c0,.84.35,1.3,1.05,1.36,1.33.21,2.71.39,4.15.53,1.43.14,3.03.28,4.78.42v60.17c-1.61.07-3.2.16-4.78.26-1.57.1-2.92.23-4.04.37-.49.07-.81.19-.95.37-.14.18-.21.51-.21,1v2.21c0,.84.38,1.26,1.16,1.26h24.78c.35,0,.65-.07.89-.21.24-.14.37-.49.37-1.05v-2.31c0-.42-.11-.72-.32-.89-.21-.17-.56-.3-1.05-.37-1.19-.21-2.49-.35-3.88-.42-1.4-.07-2.87-.14-4.41-.21v-29.19h37.38v29.19c-1.33.07-2.82.16-4.46.26-1.65.1-2.96.23-3.94.37-.84.14-1.26.49-1.26,1.05v2.52c0,.84.46,1.26,1.37,1.26h24.46c.84,0,1.26-.45,1.26-1.37v-2.1c0-.35-.07-.65-.21-.89-.14-.24-.46-.4-.94-.47-1.26-.14-2.52-.26-3.78-.37-1.26-.11-2.91-.19-4.93-.26v-60.17c1.89-.14,3.57-.3,5.04-.47,1.47-.17,2.69-.3,3.67-.37.77-.14,1.16-.63,1.16-1.47v-2.1c0-.42-.09-.72-.26-.89-.18-.17-.51-.26-1-.26Z"/><path class="cls-1" d="M1027.1,190.24h-20.89c-.84,0-1.26.42-1.26,1.26v2.21c0,.77.42,1.19,1.26,1.26,1.05.14,2.42.3,4.09.47,1.68.17,3.53.33,5.57.47-1.75,4.69-3.48,9.43-5.2,14.23-1.72,4.8-3.46,9.59-5.25,14.39-1.78,4.79-3.55,9.59-5.3,14.38-1.75,4.8-3.5,9.5-5.25,14.12h-.74c-2.1-5.95-4.25-12.13-6.46-18.53s-4.41-12.88-6.62-19.42c-2.21-6.54-4.36-12.97-6.46-19.27,1.05-.07,2.29-.14,3.73-.21,1.43-.07,2.73-.19,3.89-.37,1.15-.17,2.05-.3,2.68-.37.35-.07.61-.21.79-.42.17-.21.26-.49.26-.84v-2.31c0-.42-.09-.7-.26-.84-.18-.14-.44-.21-.79-.21h-24.04c-.35,0-.61.05-.79.16-.18.1-.26.44-.26,1v2.21c0,.35.07.63.21.84.14.21.42.39.84.53.49.07,1.31.19,2.47.37,1.16.18,2.29.33,3.41.47,1.4,4.34,2.92,8.94,4.57,13.81,1.64,4.87,3.29,9.71,4.94,14.54,1.64,4.83,3.25,9.49,4.83,13.97,1.58,4.48,3.01,8.61,4.3,12.39,1.29,3.78,2.43,7,3.41,9.66.21.49.44.82.68,1,.25.18.61.26,1.1.26h5.67c.42,0,.74-.05.95-.16.21-.11.42-.44.63-1,2.52-5.88,5.15-12.44,7.88-19.69,2.73-7.25,5.53-14.7,8.4-22.36,2.87-7.67,5.6-15.17,8.19-22.52.7-.07,1.5-.17,2.42-.31.91-.14,1.75-.32,2.52-.53.35-.14.61-.3.79-.47.17-.17.26-.51.26-1v-2.1c0-.35-.07-.61-.21-.79-.14-.17-.46-.26-.95-.26Z"/><path class="cls-1" d="M1039.8,261.44h53.76c.42,0,.74-.11.95-.32s.31-.59.31-1.15v-16.17c0-.42-.09-.74-.26-.95-.18-.21-.51-.32-1-.32h-3.25c-.49,0-.84.12-1.05.37-.21.25-.35.54-.42.89-.14,1.05-.26,2.19-.37,3.41-.1,1.23-.19,2.57-.26,4.04-.07,1.47-.18,3.08-.32,4.83h-31.5v-29.4c1.61.07,3.71.14,6.3.21,2.59.07,5.29.14,8.08.21,2.8.07,5.44.16,7.93.26,2.48.1,4.32.16,5.51.16.63,0,1.03-.1,1.21-.32.17-.21.26-.56.26-1.05v-4.09c0-.84-.39-1.26-1.16-1.26-1.4,0-3.33.05-5.77.16-2.45.11-5.09.19-7.93.26-2.83.07-5.56.14-8.19.21-2.62.07-4.71.14-6.25.21v-26.04h29.5c.14,1.68.25,3.33.32,4.93.07,1.61.19,3.06.37,4.36.17,1.3.3,2.22.37,2.78.07.42.21.72.42.89.21.17.53.26.95.26h3.15c.42,0,.73-.07.94-.21.21-.14.28-.49.21-1.05v-16.17c0-.49-.09-.8-.26-.95-.18-.14-.47-.21-.89-.21h-51.45c-.28,0-.54.07-.79.21-.25.14-.37.42-.37.84v2.42c0,.49.09.79.26.89.17.1.44.19.79.26,1.4.21,2.87.39,4.41.53,1.54.14,3.04.28,4.52.42v60.17c-1.89.07-3.78.19-5.67.37-1.89.18-3.01.3-3.36.37-.63.07-.95.42-.95,1.05v2.42c0,.49.09.82.26,1,.17.18.4.26.68.26Z"/><path class="cls-1" d="M1136.92,261.12c.14-.21.21-.52.21-.94v-2.42c0-.35-.09-.59-.26-.74-.18-.14-.44-.28-.79-.42-.91-.14-2.21-.26-3.88-.37-1.68-.11-3.33-.19-4.94-.26v-26.78h13.23c4.48,0,7.91.49,10.29,1.47,2.38.98,3.99,2.26,4.83,3.83.84,1.58,1.26,3.31,1.26,5.2v12.18c0,2.24.31,4.08.94,5.51.63,1.44,1.68,2.52,3.15,3.26,1.47.73,3.43,1.1,5.88,1.1,1.12,0,2.1-.04,2.94-.11.84-.07,1.54-.14,2.1-.21.35-.14.61-.3.79-.47.17-.17.26-.47.26-.89v-2.42c0-.35-.07-.61-.21-.79-.14-.17-.42-.26-.84-.26-2.24-.07-3.92-.28-5.04-.63-1.12-.35-1.8-.98-2.05-1.89-.25-.91-.37-2.13-.37-3.68v-11.02c0-2.24-.37-4.22-1.1-5.93-.73-1.71-1.93-3.17-3.57-4.36-1.65-1.19-3.76-2.06-6.35-2.62v-.42c1.96-.42,3.95-1.19,5.98-2.31,2.03-1.12,3.73-2.89,5.09-5.3s2.05-5.58,2.05-9.5v-.84c0-2.45-.37-4.74-1.1-6.88-.74-2.13-1.89-4.02-3.47-5.67-1.57-1.64-3.64-2.94-6.19-3.88-2.56-.95-5.69-1.42-9.4-1.42h-35.49c-.35,0-.63.07-.84.21-.21.14-.32.42-.32.84v2.1c0,.56.09.93.26,1.1.17.18.47.3.89.37.98.21,2.29.39,3.94.53,1.64.14,3.27.28,4.88.42v60.17c-1.96.07-3.71.18-5.25.32-1.54.14-2.77.28-3.68.42-.35.07-.61.17-.79.31-.18.14-.26.42-.26.84v2.42c0,.77.38,1.16,1.16,1.16h25.09c.49,0,.8-.11.95-.32ZM1127.26,195.6h16.7c4.9,0,8.59,1.03,11.08,3.1,2.48,2.07,3.73,5.41,3.73,10.03v.53c0,3.85-.82,6.86-2.47,9.03-1.65,2.17-3.85,3.64-6.61,4.41-2.77.77-5.93,1.16-9.5,1.16h-12.92v-28.25Z"/><path class="cls-1" d="M1205.43,250.52c1.29,3.78,2.43,7,3.41,9.66.21.49.44.82.68,1,.25.18.61.26,1.1.26h5.67c.42,0,.74-.05.95-.16.21-.11.42-.44.63-1,2.52-5.88,5.15-12.44,7.88-19.69,2.73-7.25,5.53-14.7,8.4-22.36,2.87-7.67,5.6-15.17,8.19-22.52.7-.07,1.5-.17,2.42-.31.91-.14,1.75-.32,2.52-.53.35-.14.61-.3.79-.47.17-.17.26-.51.26-1v-2.1c0-.35-.07-.61-.21-.79-.14-.17-.46-.26-.95-.26h-20.89c-.84,0-1.26.42-1.26,1.26v2.21c0,.77.42,1.19,1.26,1.26,1.05.14,2.42.3,4.09.47,1.68.17,3.53.33,5.57.47-1.75,4.69-3.48,9.43-5.2,14.23-1.72,4.8-3.46,9.59-5.25,14.39-1.78,4.79-3.55,9.59-5.3,14.38-1.75,4.8-3.5,9.5-5.25,14.12h-.74c-2.1-5.95-4.25-12.13-6.46-18.53s-4.41-12.88-6.62-19.42c-2.21-6.54-4.36-12.97-6.46-19.27,1.05-.07,2.29-.14,3.73-.21,1.43-.07,2.73-.19,3.89-.37,1.15-.17,2.05-.3,2.68-.37.35-.07.61-.21.79-.42.17-.21.26-.49.26-.84v-2.31c0-.42-.09-.7-.26-.84-.18-.14-.44-.21-.79-.21h-24.04c-.35,0-.61.05-.79.16-.18.1-.26.44-.26,1v2.21c0,.35.07.63.21.84.14.21.42.39.84.53.49.07,1.31.19,2.47.37,1.16.18,2.29.33,3.41.47,1.4,4.34,2.92,8.94,4.57,13.81,1.64,4.87,3.29,9.71,4.94,14.54,1.64,4.83,3.25,9.49,4.83,13.97,1.58,4.48,3.01,8.61,4.3,12.39Z"/><path class="cls-1" d="M1262.4,258.49c.84.42,2.08.96,3.73,1.63,1.64.67,3.8,1.3,6.46,1.89,2.66.59,5.84.89,9.56.89,5.53,0,10.15-.93,13.86-2.78,3.71-1.85,6.49-4.36,8.35-7.51,1.85-3.15,2.78-6.65,2.78-10.5,0-3.43-.56-6.26-1.68-8.5-1.12-2.24-2.71-4.11-4.78-5.62-2.07-1.5-4.57-2.82-7.51-3.94-2.45-.77-4.5-1.45-6.14-2.05-1.65-.59-3.13-1.12-4.46-1.58-1.33-.45-2.59-.89-3.78-1.31-3.22-1.19-5.71-2.64-7.46-4.36-1.75-1.71-2.66-4.32-2.73-7.82-.07-3.85,1.17-6.91,3.73-9.19,2.55-2.27,6.11-3.41,10.66-3.41,3.36,0,6.09.4,8.19,1.21,2.1.81,3.71,1.82,4.83,3.04,1.12,1.23,1.71,2.47,1.79,3.73.21,1.05.37,2.1.47,3.15.1,1.05.21,2,.32,2.83.1.84.19,1.37.26,1.58.07.42.21.72.42.89.21.17.49.26.84.26h3.04c.42,0,.73-.09.94-.26.21-.17.32-.47.32-.89v-19.74c0-.56-.09-.91-.26-1.05-.18-.14-.47-.21-.89-.21h-3.15c-.77,0-1.26.38-1.47,1.15l-.31,3.36c-1.05-1.05-2.82-2.08-5.3-3.1-2.49-1.01-5.72-1.52-9.71-1.52-6.72,0-12.07,1.73-16.06,5.2-3.99,3.47-5.99,8.07-5.99,13.81,0,3.5.59,6.41,1.79,8.71,1.19,2.31,2.87,4.17,5.04,5.57,2.17,1.4,4.62,2.66,7.35,3.78,1.61.63,3.43,1.28,5.46,1.94,2.03.67,3.92,1.28,5.67,1.84,1.75.56,3.18,1.09,4.31,1.58,2.59,1.05,4.67,2.45,6.25,4.2,1.58,1.75,2.36,4.34,2.36,7.77,0,4.76-1.56,8.33-4.67,10.71-3.12,2.38-7.33,3.57-12.65,3.57-3.64-.07-6.56-.45-8.77-1.15-2.21-.7-4.11-1.43-5.72-2.21-.07-1.4-.16-3.04-.26-4.94-.1-1.89-.19-3.6-.26-5.14-.07-1.54-.14-2.45-.21-2.73-.07-.49-.21-.84-.42-1.05s-.56-.32-1.05-.32h-3.04c-.56,0-.98.11-1.26.32-.28.21-.42.63-.42,1.26v13.86c0,.77.14,1.42.42,1.94.28.53.7.93,1.26,1.21Z"/><path class="cls-1" d="M1341.04,256.6c-.91-.14-2.33-.24-4.25-.31-1.93-.07-3.73-.17-5.41-.32,1.33-3.92,2.61-7.8,3.83-11.66,1.22-3.85,2.47-7.67,3.73-11.44h24.99c1.33,3.85,2.61,7.68,3.83,11.5,1.22,3.82,2.43,7.68,3.62,11.6-.77,0-1.86.07-3.25.21-1.4.14-2.75.23-4.04.26-1.3.04-2.19.12-2.68.26-.28.07-.49.19-.63.37-.14.18-.21.44-.21.79v2.31c0,.28.03.51.11.68.07.17.17.31.31.42.14.1.35.16.63.16h24.57c.42,0,.68-.09.79-.26.11-.17.16-.44.16-.79v-2.52c0-.63-.32-1.01-.95-1.15-.91-.14-1.93-.26-3.04-.37-1.12-.1-2.42-.19-3.88-.26-3.57-10.99-7.16-21.98-10.76-32.97-3.61-10.99-7.19-21.56-10.76-31.71-.07-.49-.23-.8-.47-.95-.25-.14-.65-.21-1.21-.21h-7.25c-.56,0-.96.05-1.21.16-.25.1-.44.47-.58,1.1-3.71,10.29-7.4,20.81-11.08,31.55-3.68,10.75-7.37,21.75-11.08,33.02-1.26.07-2.56.16-3.88.26-1.33.11-2.31.23-2.94.37-.35.07-.61.19-.79.37-.17.18-.26.47-.26.89v2.1c0,.91.46,1.37,1.37,1.37h22.58c.49,0,.8-.07.95-.21.14-.14.21-.45.21-.95v-2.42c0-.49-.07-.8-.21-.94-.14-.14-.42-.25-.84-.32ZM1344.14,216.92c1.16-3.64,2.33-7.25,3.52-10.82,1.19-3.57,2.27-6.89,3.25-9.97h.63c1.12,3.01,2.27,6.25,3.47,9.71,1.19,3.46,2.42,7.04,3.67,10.71s2.42,7.3,3.46,10.87h-21.42c1.12-3.36,2.26-6.86,3.41-10.5Z"/><path class="cls-1" d="M1463.89,261.17c.21-.17.32-.51.32-1v-2.21c0-.42-.11-.74-.32-.95s-.56-.35-1.05-.42c-1.33-.14-2.82-.26-4.46-.37-1.65-.11-3.17-.19-4.57-.26-.14-.21-.81-1.1-2-2.68-1.19-1.58-2.68-3.6-4.46-6.09-1.79-2.48-3.66-5.09-5.62-7.82-1.96-2.73-3.85-5.32-5.67-7.77-1.82-2.45-3.27-4.46-4.36-6.04-1.09-1.58-1.66-2.36-1.73-2.36v-.42l22.58-26.99c.49-.14,1.28-.24,2.36-.32,1.08-.07,2.21-.16,3.36-.26,1.16-.11,2.01-.23,2.57-.37.42-.07.7-.21.84-.42.14-.21.21-.49.21-.84v-2.31c0-.42-.09-.7-.26-.84-.18-.14-.51-.21-1-.21h-24.57c-.35,0-.61.07-.79.21-.18.14-.26.46-.26.95v2.31c0,.42.12.7.37.84.24.14.51.25.79.31.91.14,1.8.26,2.68.37.87.1,1.84.19,2.89.26,1.05.07,2.24.18,3.57.32-1.75,1.89-3.64,4.09-5.67,6.62-2.03,2.52-4.04,4.99-6.04,7.4s-3.78,4.6-5.36,6.56c-1.58,1.96-2.75,3.4-3.52,4.3-.35.28-.61.51-.79.68s-.44.26-.79.26h-10.19v-25.83c2.24-.14,4.13-.3,5.67-.47,1.54-.17,2.62-.33,3.25-.47.35-.14.59-.3.74-.47.14-.17.21-.51.21-1v-2c0-.77-.42-1.16-1.26-1.16h-24.99c-.35,0-.63.09-.84.26-.21.18-.32.51-.32,1v2c0,.56.09.93.26,1.1.17.17.4.3.68.37,1.4.14,2.89.28,4.46.42,1.57.14,3.1.28,4.57.42v60.17c-1.96.07-3.75.16-5.36.26-1.61.1-2.73.23-3.36.37-.42.14-.73.28-.94.42-.21.14-.32.42-.32.84v2.42c0,.77.38,1.16,1.16,1.16h25.09c.35,0,.63-.07.84-.21.21-.14.32-.45.32-.95v-2.52c0-.35-.11-.61-.32-.79-.21-.17-.46-.3-.73-.37-.98-.21-2.31-.35-3.99-.42-1.68-.07-3.29-.14-4.83-.21v-28.98h9.45c.21,0,.42.05.63.16.21.1.45.37.74.79,1.19,1.47,2.45,3.1,3.78,4.88,1.33,1.79,2.68,3.64,4.04,5.56,1.37,1.93,2.76,3.89,4.2,5.88,1.43,2,2.83,3.96,4.2,5.88,1.37,1.93,2.69,3.76,3.99,5.51,1.29,1.75,2.5,3.36,3.62,4.83.21.21.45.42.73.63.28.21.7.32,1.26.32h13.44c.35,0,.63-.09.84-.26Z"/><path class="cls-1" d="M1466.93,261.44h22.58c.49,0,.8-.07.95-.21.14-.14.21-.45.21-.95v-2.42c0-.49-.07-.8-.21-.94-.14-.14-.42-.25-.84-.32-.91-.14-2.33-.24-4.25-.31-1.93-.07-3.73-.17-5.41-.32,1.33-3.92,2.61-7.8,3.83-11.66,1.22-3.85,2.47-7.67,3.73-11.44h24.99c1.33,3.85,2.61,7.68,3.83,11.5,1.22,3.82,2.43,7.68,3.62,11.6-.77,0-1.86.07-3.25.21-1.4.14-2.75.23-4.04.26-1.3.04-2.19.12-2.68.26-.28.07-.49.19-.63.37-.14.18-.21.44-.21.79v2.31c0,.28.03.51.11.68.07.17.17.31.31.42.14.1.35.16.63.16h24.57c.42,0,.68-.09.79-.26.11-.17.16-.44.16-.79v-2.52c0-.63-.32-1.01-.95-1.15-.91-.14-1.93-.26-3.04-.37-1.12-.1-2.42-.19-3.88-.26-3.57-10.99-7.16-21.98-10.76-32.97-3.61-10.99-7.19-21.56-10.76-31.71-.07-.49-.23-.8-.47-.95-.25-.14-.65-.21-1.21-.21h-7.25c-.56,0-.96.05-1.21.16-.25.1-.44.47-.58,1.1-3.71,10.29-7.4,20.81-11.08,31.55-3.68,10.75-7.37,21.75-11.08,33.02-1.26.07-2.56.16-3.88.26-1.33.11-2.31.23-2.94.37-.35.07-.61.19-.79.37-.17.18-.26.47-.26.89v2.1c0,.91.46,1.37,1.37,1.37ZM1492.71,216.92c1.16-3.64,2.33-7.25,3.52-10.82,1.19-3.57,2.27-6.89,3.25-9.97h.63c1.12,3.01,2.27,6.25,3.47,9.71,1.19,3.46,2.42,7.04,3.67,10.71s2.42,7.3,3.46,10.87h-21.42c1.12-3.36,2.26-6.86,3.41-10.5Z"/><path class="cls-1" d="M1602.12,199.75c-2.42-2.97-5.6-5.3-9.56-6.98-3.96-1.68-8.87-2.52-14.75-2.52h-32.55c-.42,0-.73.05-.94.16-.21.1-.32.4-.32.89v2.42c0,.42.07.72.21.89.14.17.46.3.95.37.84,0,2.06.1,3.67.31,1.61.21,3.32.39,5.15.53v60.17c-1.47.07-3.15.16-5.04.26-1.89.1-3.19.23-3.89.37-.35.07-.61.18-.79.32-.18.14-.26.49-.26,1.05v2.21c0,.84.42,1.26,1.26,1.26h30.87c6.02,0,11.11-.91,15.28-2.73,4.16-1.82,7.58-4.34,10.24-7.56,2.66-3.22,4.57-7,5.72-11.34,1.15-4.34,1.73-9.03,1.73-14.07v-2.21c0-4.69-.56-9.08-1.68-13.18-1.12-4.1-2.89-7.63-5.3-10.61ZM1601.12,225.84c0,5.53-.6,10.2-1.79,14.02-1.19,3.82-2.92,6.93-5.2,9.34-2.28,2.42-4.95,4.2-8.03,5.35-3.08,1.16-6.55,1.73-10.4,1.73h-14.17v-60.9h15.65c3.08,0,6.05.49,8.92,1.47,2.87.98,5.46,2.56,7.77,4.73,2.31,2.17,4.1,5.04,5.36,8.61,1.26,3.57,1.89,8.02,1.89,13.33v2.31Z"/><path class="cls-1" d="M1678.51,242.53h-3.25c-.49,0-.84.12-1.05.37-.21.25-.35.54-.42.89-.14,1.05-.26,2.19-.37,3.41-.1,1.23-.19,2.57-.26,4.04-.07,1.47-.18,3.08-.32,4.83h-31.5v-29.4c1.61.07,3.71.14,6.3.21,2.59.07,5.29.14,8.08.21,2.8.07,5.44.16,7.93.26,2.48.1,4.32.16,5.51.16.63,0,1.03-.1,1.21-.32.17-.21.26-.56.26-1.05v-4.09c0-.84-.39-1.26-1.16-1.26-1.4,0-3.33.05-5.77.16-2.45.11-5.09.19-7.93.26-2.83.07-5.56.14-8.19.21-2.62.07-4.71.14-6.25.21v-26.04h29.5c.14,1.68.25,3.33.32,4.93.07,1.61.19,3.06.37,4.36.17,1.3.3,2.22.37,2.78.07.42.21.72.42.89.21.17.53.26.95.26h3.15c.42,0,.73-.07.94-.21.21-.14.28-.49.21-1.05v-16.17c0-.49-.09-.8-.26-.95-.18-.14-.47-.21-.89-.21h-51.45c-.28,0-.54.07-.79.21-.25.14-.37.42-.37.84v2.42c0,.49.09.79.26.89.17.1.44.19.79.26,1.4.21,2.87.39,4.41.53,1.54.14,3.04.28,4.52.42v60.17c-1.89.07-3.78.19-5.67.37-1.89.18-3.01.3-3.36.37-.63.07-.95.42-.95,1.05v2.42c0,.49.09.82.26,1,.17.18.4.26.68.26h53.76c.42,0,.74-.11.95-.32s.31-.59.31-1.15v-16.17c0-.42-.09-.74-.26-.95-.18-.21-.51-.32-1-.32Z"/><path class="cls-1" d="M1781.2,190.24h-18.69c-.42,0-.77.09-1.05.26-.28.18-.49.51-.63,1-1.47,3.43-3.06,7.3-4.78,11.6-1.72,4.3-3.46,8.71-5.25,13.23-1.79,4.52-3.5,8.89-5.15,13.12-1.65,4.24-3.06,8-4.25,11.29-1.19,3.29-2.14,5.77-2.83,7.45h-.74c-.42-1.47-1.09-3.5-2-6.09-.91-2.59-1.96-5.56-3.15-8.92-1.19-3.36-2.43-6.86-3.73-10.5-1.3-3.64-2.66-7.33-4.1-11.08-1.44-3.74-2.8-7.33-4.09-10.76-1.3-3.43-2.47-6.51-3.52-9.24-.21-.56-.44-.93-.68-1.1-.25-.17-.65-.26-1.21-.26h-19.53c-.77,0-1.16.42-1.16,1.26v2.1c0,.7.38,1.16,1.16,1.37.98.07,2.4.19,4.25.37,1.85.18,3.38.33,4.57.47v60.17c-2.66.07-4.62.18-5.88.32-1.26.14-2.28.28-3.05.42-.35.07-.61.17-.79.31-.18.14-.26.39-.26.74v2.52c0,.42.12.72.37.89.24.18.51.26.79.26h24.88c.35,0,.63-.07.84-.21.21-.14.32-.42.32-.84v-2.62c0-.63-.42-.98-1.26-1.05-1.19-.14-2.56-.28-4.1-.42-1.54-.14-3.43-.25-5.67-.32v-45.15c0-2.38-.02-4.43-.05-6.14-.04-1.71-.07-3.32-.11-4.83-.04-1.5-.12-2.92-.26-4.25h.95c1.47,4.2,3.15,8.89,5.04,14.07,1.89,5.18,3.8,10.39,5.72,15.64,1.92,5.25,3.71,10.19,5.35,14.8,1.64,4.62,3.06,8.54,4.25,11.76,1.19,3.22,2,5.32,2.42,6.3.21.42.42.72.63.89.21.18.52.26.95.26h2.94c.35,0,.65-.07.89-.21.24-.14.47-.49.68-1.05,1.54-3.78,3.17-7.72,4.88-11.81,1.71-4.09,3.39-8.28,5.04-12.55,1.64-4.27,3.27-8.59,4.88-12.97,1.61-4.37,3.24-8.66,4.88-12.86,1.64-4.2,3.2-8.22,4.67-12.08h.94c-.07,1.68-.16,3.61-.26,5.78-.1,2.17-.19,4.93-.26,8.29-.07,3.36-.11,7.77-.11,13.23v32.87c-2.59.07-4.69.16-6.3.26-1.61.1-2.83.23-3.67.37-.35.07-.61.18-.79.32-.17.14-.26.46-.26.94v2.42c0,.77.42,1.16,1.26,1.16h25.93c.7,0,1.05-.42,1.05-1.26v-2.42c0-.42-.07-.7-.21-.84-.14-.14-.38-.25-.73-.32-.91-.21-2.08-.35-3.52-.42-1.44-.07-3.17-.14-5.2-.21v-60.17c1.82-.14,3.43-.3,4.83-.47,1.4-.17,2.69-.33,3.89-.47.35-.07.61-.17.79-.31.17-.14.26-.46.26-.95v-2.1c0-.84-.35-1.26-1.05-1.26Z"/><path class="cls-1" d="M1817.84,195.39c1.47-.14,2.73-.32,3.78-.53.77-.07,1.16-.49,1.16-1.26v-2.31c0-.42-.11-.7-.32-.84-.21-.14-.52-.21-.94-.21h-25.1c-.7,0-1.05.39-1.05,1.16v2.31c0,.42.11.7.32.84.21.14.49.25.84.31,1.26.21,2.64.39,4.15.53,1.5.14,3.06.28,4.67.42v60.17c-2.59.07-4.5.16-5.72.26-1.23.1-2.26.23-3.1.37-.42.07-.72.19-.89.37s-.26.44-.26.79v2.52c0,.77.42,1.16,1.26,1.16h24.89c.84,0,1.26-.45,1.26-1.37v-2.1c0-.49-.11-.82-.32-1-.21-.17-.56-.3-1.05-.37-1.4-.14-2.78-.26-4.15-.37-1.37-.11-2.82-.19-4.36-.26v-60.17c1.82-.14,3.46-.28,4.94-.42Z"/><path class="cls-1" d="M800.51,374.54c-1.33-.14-2.82-.26-4.46-.37-1.65-.11-3.17-.19-4.57-.26-.14-.21-.81-1.1-2-2.68-1.19-1.58-2.68-3.6-4.46-6.09-1.79-2.48-3.66-5.09-5.62-7.82-1.96-2.73-3.85-5.32-5.67-7.77-1.82-2.45-3.27-4.46-4.36-6.04-1.09-1.58-1.66-2.36-1.73-2.36v-.42l22.58-26.99c.49-.14,1.28-.24,2.36-.32,1.08-.07,2.21-.16,3.36-.26,1.16-.11,2.01-.23,2.57-.37.42-.07.7-.21.84-.42.14-.21.21-.49.21-.84v-2.31c0-.42-.09-.7-.26-.84-.18-.14-.51-.21-1-.21h-24.57c-.35,0-.61.07-.79.21-.18.14-.26.46-.26.95v2.31c0,.42.12.7.37.84.24.14.51.25.79.31.91.14,1.8.26,2.68.37.87.1,1.84.19,2.89.26,1.05.07,2.24.18,3.57.32-1.75,1.89-3.64,4.09-5.67,6.62-2.03,2.52-4.04,4.99-6.04,7.4s-3.78,4.6-5.36,6.56c-1.58,1.96-2.75,3.4-3.52,4.3-.35.28-.61.51-.79.68s-.44.26-.79.26h-10.19v-25.83c2.24-.14,4.13-.3,5.67-.47,1.54-.17,2.62-.33,3.25-.47.35-.14.59-.3.74-.47.14-.17.21-.51.21-1v-2c0-.77-.42-1.16-1.26-1.16h-24.99c-.35,0-.63.09-.84.26-.21.18-.32.51-.32,1v2c0,.56.09.93.26,1.1.17.17.4.3.68.37,1.4.14,2.89.28,4.46.42,1.57.14,3.1.28,4.57.42v60.17c-1.96.07-3.75.16-5.36.26-1.61.1-2.73.23-3.36.37-.42.14-.73.28-.94.42-.21.14-.32.42-.32.84v2.42c0,.77.38,1.16,1.16,1.16h25.09c.35,0,.63-.07.84-.21.21-.14.32-.45.32-.95v-2.52c0-.35-.11-.61-.32-.79-.21-.17-.46-.3-.73-.37-.98-.21-2.31-.35-3.99-.42-1.68-.07-3.29-.14-4.83-.21v-28.98h9.45c.21,0,.42.05.63.16.21.1.45.37.74.79,1.19,1.47,2.45,3.1,3.78,4.88,1.33,1.79,2.68,3.64,4.04,5.56,1.37,1.93,2.76,3.89,4.2,5.88,1.43,2,2.83,3.96,4.2,5.88,1.37,1.93,2.69,3.76,3.99,5.51,1.29,1.75,2.5,3.36,3.62,4.83.21.21.45.42.73.63.28.21.7.32,1.26.32h13.44c.35,0,.63-.09.84-.26.21-.17.32-.51.32-1v-2.21c0-.42-.11-.74-.32-.95s-.56-.35-1.05-.42Z"/><path class="cls-1" d="M867.71,316.95c-.83-1.08-1.76-2.07-2.77-2.99l3.61-5.57c.35-.35.49-.68.42-1-.07-.32-.42-.47-1.05-.47h-3.04c-.77,0-1.33.28-1.68.84l-2.14,3.31c-.98-.59-2.01-1.14-3.11-1.63-4.06-1.82-8.96-2.73-14.7-2.73-7.07,0-12.93,1.52-17.59,4.57-4.66,3.04-8.17,7.19-10.55,12.44-2.38,5.25-3.57,11.34-3.57,18.27v2.94c0,4.97.56,9.63,1.68,13.97,1.12,4.34,2.89,8.16,5.3,11.44.71.97,1.5,1.86,2.35,2.7l-3.76,5.8c-.35.49-.4.91-.16,1.26.25.35.61.52,1.1.52h2.73c.21,0,.47-.07.79-.21.32-.14.61-.46.89-.94l2.2-3.39c1.11.73,2.3,1.39,3.58,1.97,4.06,1.85,9.06,2.78,15.01,2.78s10.83-.93,14.86-2.78c4.02-1.85,7.26-4.43,9.71-7.72,2.45-3.29,4.22-7.1,5.3-11.44,1.08-4.34,1.63-9.03,1.63-14.07v-3.04c0-4.83-.56-9.38-1.68-13.65-1.12-4.27-2.91-8-5.36-11.18ZM824.71,366.67c-1.86-2.73-3.2-5.97-4.04-9.71-.84-3.74-1.26-7.75-1.26-12.02v-2.94c0-4.2.45-8.1,1.37-11.71.91-3.6,2.29-6.74,4.15-9.4,1.85-2.66,4.27-4.74,7.25-6.25,2.97-1.5,6.56-2.26,10.76-2.26,6.02,0,10.78,1.24,14.28,3.73.13.09.25.2.38.29l-32.73,50.47c-.05-.07-.1-.14-.15-.21ZM866.98,345.04c0,4.2-.39,8.14-1.16,11.81-.77,3.67-2.07,6.9-3.88,9.66-1.82,2.77-4.24,4.92-7.25,6.46-3.01,1.54-6.76,2.31-11.24,2.31s-8.35-.75-11.39-2.26c-1.4-.69-2.67-1.52-3.82-2.47l32.89-50.72c1.52,1.9,2.72,4.1,3.58,6.62,1.5,4.41,2.26,9.52,2.26,15.33v3.25Z"/><path class="cls-1" d="M939.95,344.09c-2.24-1.4-4.76-2.34-7.56-2.83v-.52c1.89-.35,3.76-1.08,5.62-2.21,1.85-1.12,3.43-2.76,4.73-4.94,1.29-2.17,1.94-4.93,1.94-8.29v-.42c0-3.92-.84-7.1-2.52-9.55-1.68-2.45-3.96-4.25-6.83-5.41-2.87-1.16-6.13-1.73-9.76-1.73h-34.86c-.77,0-1.15.35-1.15,1.05v2.42c0,.77.35,1.19,1.05,1.26.91.14,2.19.28,3.83.42,1.64.14,3.31.28,4.99.42v60.06c-1.89.07-3.62.18-5.2.32-1.57.14-2.78.28-3.62.42-.42,0-.7.09-.84.26-.14.18-.21.47-.21.89v2.52c0,.77.38,1.16,1.15,1.16h31.19c5.18,0,9.66-.8,13.44-2.42,3.78-1.61,6.74-3.92,8.87-6.93,2.13-3.01,3.2-6.72,3.2-11.13v-.53c0-3.5-.68-6.41-2.05-8.71-1.37-2.31-3.17-4.16-5.41-5.57ZM906.88,313.54h16.69c2.03,0,4.06.33,6.09,1,2.03.67,3.76,1.86,5.2,3.57,1.43,1.72,2.15,4.15,2.15,7.3v.52c0,3.29-.7,5.9-2.1,7.82-1.4,1.93-3.29,3.25-5.67,3.99-2.38.74-5.08,1.1-8.08,1.1h-14.28v-25.3ZM939.22,359.11c0,3.36-.7,6.04-2.1,8.03-1.4,2-3.06,3.48-4.99,4.46-1.93.98-3.9,1.63-5.93,1.94-2.03.31-3.67.47-4.93.47h-14.38v-29.71h14.17c3.15,0,6.11.39,8.87,1.16,2.76.77,5,2.17,6.72,4.2,1.71,2.03,2.57,5.01,2.57,8.92v.53Z"/><path class="cls-1" d="M1015.24,360.47h-3.25c-.49,0-.84.12-1.05.37-.21.25-.35.54-.42.89-.14,1.05-.26,2.19-.37,3.41-.1,1.23-.19,2.57-.26,4.04-.07,1.47-.18,3.08-.32,4.83h-31.5v-29.4c1.61.07,3.71.14,6.3.21,2.59.07,5.29.14,8.08.21,2.8.07,5.44.16,7.93.26,2.48.1,4.32.16,5.51.16.63,0,1.03-.1,1.21-.32.17-.21.26-.56.26-1.05v-4.09c0-.84-.39-1.26-1.16-1.26-1.4,0-3.33.05-5.77.16-2.45.11-5.09.19-7.93.26-2.83.07-5.56.14-8.19.21-2.62.07-4.71.14-6.25.21v-26.04h29.5c.14,1.68.25,3.33.32,4.93.07,1.61.19,3.06.37,4.36.17,1.3.3,2.22.37,2.78.07.42.21.72.42.89.21.17.53.26.95.26h3.15c.42,0,.73-.07.94-.21.21-.14.28-.49.21-1.05v-16.17c0-.49-.09-.8-.26-.95-.18-.14-.47-.21-.89-.21h-51.45c-.28,0-.54.07-.79.21-.25.14-.37.42-.37.84v2.42c0,.49.09.79.26.89.17.1.44.19.79.26,1.4.21,2.87.39,4.41.53,1.54.14,3.04.28,4.52.42v60.17c-1.89.07-3.78.19-5.67.37-1.89.18-3.01.3-3.36.37-.63.07-.95.42-.95,1.05v2.42c0,.49.09.82.26,1,.17.18.4.26.68.26h53.76c.42,0,.74-.11.95-.32s.31-.59.31-1.15v-16.17c0-.42-.09-.74-.26-.95-.18-.21-.51-.32-1-.32Z"/><path class="cls-1" d="M1103.75,308.34c-.21-.11-.49-.16-.84-.16h-23.21c-.42,0-.7.07-.84.21-.14.14-.21.42-.21.84v2.42c0,.35.07.61.21.79.14.18.42.3.84.37,1.33.14,2.73.3,4.2.47,1.47.18,3.32.33,5.57.47v32.76c0,4.34.03,7.91.1,10.71.07,2.8.14,5.06.21,6.77.07,1.72.11,3.31.11,4.78l-.74-.1c-1.96-3.22-4.13-6.75-6.51-10.61-2.38-3.85-4.85-7.88-7.4-12.07-2.56-4.2-5.06-8.28-7.51-12.23-2.45-3.95-4.71-7.63-6.77-11.03-2.07-3.39-3.88-6.28-5.46-8.66-1.58-2.38-2.68-4.06-3.31-5.04-.14-.28-.33-.49-.58-.63-.25-.14-.58-.21-1-.21h-18.17c-.7,0-1.05.35-1.05,1.05v2.42c0,.42.09.7.26.84.17.14.47.25.89.31,1.05.14,2.31.3,3.78.47,1.47.18,3.15.33,5.04.47v60.17c-1.61.07-3.34.16-5.2.26-1.86.1-3.06.23-3.62.37-.42.07-.72.19-.89.37s-.26.44-.26.79v2.31c0,.49.09.84.26,1.05.17.21.51.32,1,.32h25.73c.63,0,.95-.38.95-1.16v-2.31c0-.42-.05-.74-.16-.95-.1-.21-.33-.35-.68-.42-1.12-.14-2.73-.24-4.83-.31-2.1-.07-4.2-.14-6.3-.21v-43.73c0-2.69-.02-4.99-.05-6.88-.04-1.89-.07-3.46-.11-4.73-.04-1.26-.09-2.45-.16-3.57h.63c2.24,3.71,4.58,7.54,7.04,11.5,2.45,3.96,4.9,7.98,7.35,12.08,2.45,4.09,4.86,8.1,7.25,12.02,2.38,3.92,4.69,7.61,6.93,11.08,2.24,3.47,4.23,6.58,5.99,9.35,1.75,2.77,3.29,5.13,4.62,7.09.28.35.54.63.79.84.25.21.72.32,1.42.32h5.25c.49,0,.82-.12,1-.37.17-.25.26-.61.26-1.1v-64.16c1.33-.14,2.71-.28,4.15-.42,1.43-.14,2.5-.28,3.2-.42.42-.07.72-.17.89-.32.17-.14.26-.49.26-1.05v-2.42c0-.42-.1-.68-.31-.79Z"/><path class="cls-1" d="M1187.85,308.18h-24.67c-.77,0-1.16.39-1.16,1.16v2.21c0,.42.09.72.26.89.17.18.47.33.89.47.98.14,2.26.28,3.83.42,1.57.14,3.13.28,4.67.42v25.51h-37.38v-25.51c2.03-.14,3.69-.28,4.99-.42,1.29-.14,2.43-.28,3.41-.42.84-.14,1.26-.53,1.26-1.16v-2.52c0-.42-.11-.7-.32-.84-.21-.14-.49-.21-.84-.21h-24.88c-.42,0-.72.07-.89.21-.18.14-.26.42-.26.84v2.21c0,.84.35,1.3,1.05,1.36,1.33.21,2.71.39,4.15.53,1.43.14,3.03.28,4.78.42v60.17c-1.61.07-3.2.16-4.78.26-1.57.1-2.92.23-4.04.37-.49.07-.81.19-.95.37-.14.18-.21.51-.21,1v2.21c0,.84.38,1.26,1.16,1.26h24.78c.35,0,.65-.07.89-.21.24-.14.37-.49.37-1.05v-2.31c0-.42-.11-.72-.32-.89-.21-.17-.56-.3-1.05-.37-1.19-.21-2.49-.35-3.88-.42-1.4-.07-2.87-.14-4.41-.21v-29.19h37.38v29.19c-1.33.07-2.82.16-4.46.26-1.65.1-2.96.23-3.94.37-.84.14-1.26.49-1.26,1.05v2.52c0,.84.46,1.26,1.37,1.26h24.46c.84,0,1.26-.45,1.26-1.37v-2.1c0-.35-.07-.65-.21-.89-.14-.24-.46-.4-.94-.47-1.26-.14-2.52-.26-3.78-.37-1.26-.11-2.91-.19-4.93-.26v-60.17c1.89-.14,3.57-.3,5.04-.47,1.47-.17,2.69-.3,3.67-.37.77-.14,1.16-.63,1.16-1.47v-2.1c0-.42-.09-.72-.26-.89-.18-.17-.51-.26-1-.26Z"/><path class="cls-1" d="M1266.5,374.65c-.91-.14-1.93-.26-3.04-.37-1.12-.1-2.42-.19-3.88-.26-3.57-10.99-7.16-21.98-10.76-32.97-3.61-10.99-7.19-21.56-10.76-31.71-.07-.49-.23-.8-.47-.95-.25-.14-.65-.21-1.21-.21h-7.25c-.56,0-.96.05-1.21.16-.25.1-.44.47-.58,1.1-3.71,10.29-7.4,20.81-11.08,31.55-3.68,10.75-7.37,21.75-11.08,33.02-1.26.07-2.56.16-3.88.26-1.33.11-2.31.23-2.94.37-.35.07-.61.19-.79.37-.17.18-.26.47-.26.89v2.1c0,.91.46,1.37,1.37,1.37h22.58c.49,0,.8-.07.95-.21.14-.14.21-.45.21-.95v-2.42c0-.49-.07-.8-.21-.94-.14-.14-.42-.25-.84-.32-.91-.14-2.33-.24-4.25-.31-1.93-.07-3.73-.17-5.41-.32,1.33-3.92,2.61-7.8,3.83-11.66,1.22-3.85,2.47-7.67,3.73-11.44h24.99c1.33,3.85,2.61,7.68,3.83,11.5,1.22,3.82,2.43,7.68,3.62,11.6-.77,0-1.86.07-3.25.21-1.4.14-2.75.23-4.04.26-1.3.04-2.19.12-2.68.26-.28.07-.49.19-.63.37-.14.18-.21.44-.21.79v2.31c0,.28.03.51.11.68.07.17.17.31.31.42.14.1.35.16.63.16h24.57c.42,0,.68-.09.79-.26.11-.17.16-.44.16-.79v-2.52c0-.63-.32-1.01-.95-1.15ZM1221.03,345.35c1.12-3.36,2.26-6.86,3.41-10.5,1.16-3.64,2.33-7.25,3.52-10.82,1.19-3.57,2.27-6.89,3.25-9.97h.63c1.12,3.01,2.27,6.25,3.47,9.71,1.19,3.46,2.42,7.04,3.67,10.71s2.42,7.3,3.46,10.87h-21.42Z"/><path class="cls-1" d="M1332.65,308.18h-20.89c-.84,0-1.26.42-1.26,1.26v2.21c0,.77.42,1.19,1.26,1.26,1.05.14,2.42.3,4.09.47,1.68.17,3.53.33,5.57.47-1.75,4.69-3.48,9.43-5.2,14.23-1.72,4.8-3.46,9.59-5.25,14.39-1.78,4.79-3.55,9.59-5.3,14.38-1.75,4.8-3.5,9.5-5.25,14.12h-.74c-2.1-5.95-4.25-12.13-6.46-18.53s-4.41-12.88-6.62-19.42c-2.21-6.54-4.36-12.97-6.46-19.27,1.05-.07,2.29-.14,3.73-.21,1.43-.07,2.73-.19,3.89-.37,1.15-.17,2.05-.3,2.68-.37.35-.07.61-.21.79-.42.17-.21.26-.49.26-.84v-2.31c0-.42-.09-.7-.26-.84-.18-.14-.44-.21-.79-.21h-24.04c-.35,0-.61.05-.79.16-.18.1-.26.44-.26,1v2.21c0,.35.07.63.21.84.14.21.42.39.84.53.49.07,1.31.19,2.47.37,1.16.18,2.29.33,3.41.47,1.4,4.34,2.92,8.94,4.57,13.81,1.64,4.87,3.29,9.71,4.94,14.54,1.64,4.83,3.25,9.49,4.83,13.97,1.58,4.48,3.01,8.61,4.3,12.39,1.29,3.78,2.43,7,3.41,9.66.21.49.44.82.68,1,.25.18.61.26,1.1.26h5.67c.42,0,.74-.05.95-.16.21-.11.42-.44.63-1,2.52-5.88,5.15-12.44,7.88-19.69,2.73-7.25,5.53-14.7,8.4-22.36,2.87-7.67,5.6-15.17,8.19-22.52.7-.07,1.5-.17,2.42-.31.91-.14,1.75-.32,2.52-.53.35-.14.61-.3.79-.47.17-.17.26-.51.26-1v-2.1c0-.35-.07-.61-.21-.79-.14-.17-.46-.26-.95-.26Z"/><path class="cls-1" d="M1416.75,308.34c-.21-.11-.49-.16-.84-.16h-23.21c-.42,0-.7.07-.84.21-.14.14-.21.42-.21.84v2.42c0,.35.07.61.21.79.14.18.42.3.84.37,1.33.14,2.73.3,4.2.47,1.47.18,3.32.33,5.57.47v32.76c0,4.34.03,7.91.1,10.71.07,2.8.14,5.06.21,6.77.07,1.72.11,3.31.11,4.78l-.74-.1c-1.96-3.22-4.13-6.75-6.51-10.61-2.38-3.85-4.85-7.88-7.4-12.07-2.56-4.2-5.06-8.28-7.51-12.23-2.45-3.95-4.71-7.63-6.77-11.03-2.07-3.39-3.88-6.28-5.46-8.66-1.58-2.38-2.68-4.06-3.31-5.04-.14-.28-.33-.49-.58-.63-.25-.14-.58-.21-1-.21h-18.17c-.7,0-1.05.35-1.05,1.05v2.42c0,.42.09.7.26.84.17.14.47.25.89.31,1.05.14,2.31.3,3.78.47,1.47.18,3.15.33,5.04.47v60.17c-1.61.07-3.34.16-5.2.26-1.86.1-3.06.23-3.62.37-.42.07-.72.19-.89.37s-.26.44-.26.79v2.31c0,.49.09.84.26,1.05.17.21.51.32,1,.32h25.73c.63,0,.95-.38.95-1.16v-2.31c0-.42-.05-.74-.16-.95-.1-.21-.33-.35-.68-.42-1.12-.14-2.73-.24-4.83-.31-2.1-.07-4.2-.14-6.3-.21v-43.73c0-2.69-.02-4.99-.05-6.88-.04-1.89-.07-3.46-.11-4.73-.04-1.26-.09-2.45-.16-3.57h.63c2.24,3.71,4.58,7.54,7.04,11.5,2.45,3.96,4.9,7.98,7.35,12.08,2.45,4.09,4.86,8.1,7.25,12.02,2.38,3.92,4.69,7.61,6.93,11.08,2.24,3.47,4.23,6.58,5.99,9.35,1.75,2.77,3.29,5.13,4.62,7.09.28.35.54.63.79.84.25.21.72.32,1.42.32h5.25c.49,0,.82-.12,1-.37.17-.25.26-.61.26-1.1v-64.16c1.33-.14,2.71-.28,4.15-.42,1.43-.14,2.5-.28,3.2-.42.42-.07.72-.17.89-.32.17-.14.26-.49.26-1.05v-2.42c0-.42-.1-.68-.31-.79Z"/><path class="cls-1" d="M407.14,189.69h-211.69c-3.18,0-5.76,2.58-5.76,5.76v178.21c0,3.18,2.58,5.76,5.76,5.76h211.69c3.18,0,5.76-2.58,5.76-5.76v-41.64c0-3.94-3.85-6.72-7.59-5.46-18.01,6.05-66.31,20.13-125.72,20.13-4.89,0-12.86-.25-18.21-.43-3.1-.11-5.55-2.65-5.55-5.76v-36.99c0-3.38,2.9-6.04,6.27-5.74l92.43,8.24c2.25.2,4.4-.93,5.52-2.89l14.55-25.58c2.32-4.08-.95-9.08-5.62-8.57-35.28,3.87-71.1,5.95-107.36,6.15-3.19.02-5.78-2.58-5.78-5.77v-30.81c0-3.18,2.58-5.76,5.76-5.76h145.55c3.18,0,5.76-2.58,5.76-5.76v-31.58c0-3.18-2.58-5.76-5.76-5.76Z"/><path class="cls-1" d="M439.42,189.69h54.62c3.18,0,5.76,2.58,5.76,5.76v178.21c0,3.18-2.58,5.76-5.76,5.76h-54.62c-3.18,0-5.76-2.58-5.76-5.76v-178.21c0-3.18,2.58-5.76,5.76-5.76Z"/><path class="cls-1" d="M669.1,189.69h-77.59c-1.63,0-3.18.69-4.27,1.9l-79.57,87.95c-2,2.21-1.98,5.58.04,7.78l83.45,90.26c1.09,1.18,2.62,1.85,4.23,1.85h68.3c5.46,0,7.86-6.89,3.58-10.27-9.49-7.51-22.49-19.97-37.02-40.02-23.06-31.83-64.41-45.57-108.51-45.57-2.48-.03-3.4-3.29-1.3-4.6,26.03-16.17,56.11-19.81,96.39-19.96,1.62,0,3.18-.69,4.26-1.89l52.28-57.78c3.35-3.7.72-9.63-4.27-9.63Z"/></svg>