<?xml version="1.0" encoding="iso-8859-1"?>
<!-- Uploaded to: SVG Repo, www.svgrepo.com, Generator: SVG Repo Mixer Tools -->
<svg version="1.1" id="Layer_1" xmlns="http://www.w3.org/2000/svg" xmlns:xlink="http://www.w3.org/1999/xlink" 
	 viewBox="0 0 512 512" xml:space="preserve">
<rect x="70.64" style="fill:#EFEFEF;" width="370.72" height="494.344"/>
<rect x="70.64" style="fill:#999999;" width="370.72" height="59.488"/>
<g>
	<rect x="105.856" y="21.616" style="fill:#FFFFFF;" width="110.072" height="5.888"/>
	<rect x="105.856" y="31.992" style="fill:#FFFFFF;" width="84.296" height="5.888"/>
</g>
<rect x="268.432" y="31.992" style="fill:#2C3E50;" width="21.6" height="5.888"/>
<rect x="297.456" y="31.992" style="fill:#FFFFFF;" width="21.6" height="5.888"/>
<rect x="326.416" y="31.992" style="fill:#2C3E50;" width="21.6" height="5.888"/>
<rect x="355.376" y="31.992" style="fill:#FFFFFF;" width="21.6" height="5.888"/>
<rect x="384.416" y="31.992" style="fill:#2C3E50;" width="21.6" height="5.888"/>
<g>
	<rect x="70.64" y="494.344" style="fill:#999999;" width="370.72" height="17.656"/>
	<rect x="267.784" y="224.4" style="fill:#999999;" width="138.392" height="105.536"/>
	<rect x="105.856" y="224.4" style="fill:#999999;" width="138.392" height="105.536"/>
	<rect x="267.784" y="353.52" style="fill:#999999;" width="138.392" height="105.536"/>
	<rect x="105.856" y="353.52" style="fill:#999999;" width="138.392" height="105.536"/>
	<rect x="267.784" y="94.8" style="fill:#999999;" width="138.392" height="106.088"/>
	<rect x="105.856" y="94.8" style="fill:#999999;" width="138.392" height="106.088"/>
</g>
</svg>